<svg width="1451" height="1451" viewBox="0 0 1451 1451" fill="none" xmlns="http://www.w3.org/2000/svg">
<path d="M725.392 1425C1111.66 1425 1424.78 1111.87 1424.78 725.608C1424.78 339.345 1111.66 26.2167 725.392 26.2167C339.128 26.2167 26 339.345 26 725.608C26 1111.87 339.128 1425 725.392 1425Z" fill="#F7F7F9"/>
<path d="M828.441 165.091C795.257 123.797 767.727 100.918 751.098 92.1753C745.034 88.9759 737.706 92.9193 736.924 99.7272L731.753 145.857C731.753 145.857 731.753 146.08 731.716 146.192C724.648 181.98 712.223 214.829 691.352 244.591C665.386 281.643 636.145 316.129 607.091 350.69C569.591 395.332 542.211 444.401 532.166 502.621C523.164 554.778 526.549 605.149 548.87 653.698C555.938 669.062 555.752 668.764 539.607 670.364C483.432 675.944 427.964 685.133 376.329 709.388C344.037 724.567 320.34 747.929 314.276 784.908C312.639 794.915 312.528 805.257 312.714 815.45C312.862 823.374 311.3 826.909 302.111 826.871C217.626 826.425 133.104 826.425 48.6189 826.313C46.982 826.313 45.5311 825.234 45.0847 823.672C40.4345 807.675 38.4256 791.158 38.0536 774.64C37.3096 740.75 36.4539 706.784 38.0164 672.968C40.5461 617.872 49.4001 563.893 67.4057 511.252C80.4635 473.121 95.3814 435.882 113.759 400.242C128.528 371.597 146.348 344.663 165.321 318.213C192.217 280.713 221.309 245.521 254.753 214.048C309.626 162.338 370.153 118.96 438.716 86.1858C498.276 57.7265 559.956 37.5632 624.724 27.5187C687.558 17.7719 750.54 15.577 814.118 25.2122C890.009 36.6703 962.218 57.8753 1029.92 93.8865C1133.87 149.168 1221.77 222.418 1288.55 320.556C1325.53 374.871 1353.32 432.98 1376.5 494.251C1395.73 545.106 1405.03 597.263 1410.57 650.833C1414.81 691.643 1412.66 732.416 1412.58 773.152C1412.58 789.93 1409.12 806.745 1406.93 823.523C1406.67 825.421 1405.03 826.797 1403.13 826.723C1399.15 826.537 1395.13 826.239 1391.23 826.723C1379.73 828.136 1374.34 824.751 1372.18 812.028C1367.72 785.391 1354.21 762.587 1335.31 743.502C1274.6 682.157 1181.67 674.382 1111.62 724.864C1105.04 729.626 1100.76 729.849 1094.84 725.534C1081.19 715.638 1066.49 707.194 1050.61 701.576C1002.58 684.612 952.657 676.502 902.435 670.178C893.432 669.062 889.489 668.318 895.552 658.311C945.886 575.202 953.773 485.062 937.702 391.537C935.693 375.652 906.75 262.522 828.441 165.128V165.091Z" fill="#B5C97F"/>
<path d="M373.836 806.559C441.283 839.334 513.714 846.142 585.774 853.136C689.902 863.254 794.848 862.287 898.789 850.457C958.461 843.649 1018.02 835.13 1072.63 807.303C1081.6 802.727 1082.42 806.671 1082.27 814.371C1080.93 886.022 1061.25 952.353 1024.53 1013.77C996.406 1060.8 958.981 1098.96 913.298 1128.95C870.069 1157.33 822.563 1174.82 771.41 1182.52C703.182 1192.79 638.861 1180.77 576.771 1151.49C552.627 1140.11 527.405 1128.99 508.953 1110.94C485.404 1087.92 460.553 1065.15 442.51 1036.76C429.192 1015.82 411.447 996.697 402.891 974.004C390.763 941.899 377.519 909.571 373.687 874.638C371.344 853.136 367.586 831.819 368.591 809.758C368.702 807.08 371.492 805.443 373.873 806.596L373.836 806.559Z" fill="#3F3935"/>
<path d="M647.64 724.678C645.222 724.678 643.436 722.372 644.106 720.028C654.857 682.64 678.778 654.59 709.134 631.19C729.67 615.342 751.47 601.094 770.554 583.423C792.875 562.702 812.22 539.86 820.516 509.578C821.26 506.9 822.302 504.258 822.339 500.761C822.376 497.264 818.061 495.739 815.866 498.343C774.721 547.561 719.737 577.099 668.436 614.487C665.757 616.459 662 614.115 662.632 610.841C667.952 582.568 678.778 558.312 695.333 536.773C717.096 508.499 741.053 481.863 762.296 453.255C791.573 413.821 808.165 369.774 803.403 319.515C802.622 311.182 800.911 303.034 797.228 295.445C795.628 292.172 793.805 288.117 789.267 289.121C785.509 289.939 785.435 294.069 785.063 297.119C784.021 305.378 783.798 313.786 782.533 322.007C778.478 348.83 767.392 372.713 751.805 396.299C750.317 398.531 747.043 398.457 745.592 396.187C724.648 363.078 719.104 328.927 732.943 291.725C737.036 280.751 743.174 270.967 749.275 261.108C759.58 244.553 769.81 227.924 774.423 208.728C776.358 200.73 779.557 200.655 784.133 206.124C792.801 216.392 801.841 226.473 809.467 237.485C868.358 322.379 899.942 415.532 884.466 519.399C870.478 613.185 820.814 682.008 729.856 717.015C723.643 719.396 717.505 722.111 711.367 724.678C710.92 724.864 710.399 724.976 709.916 724.976C689.157 724.864 668.361 724.79 647.603 724.678H647.64Z" fill="#3F3935"/>
<path d="M642.543 724.715C642.766 724.678 642.989 724.641 643.25 724.641C665.757 724.753 688.264 724.864 710.771 724.976C746.447 726.092 782.124 727.096 817.837 728.324C875.314 730.259 932.791 732.863 989.263 744.99C999.307 747.148 1014.6 747.297 1014.89 759.462C1015.27 773.264 999.233 773.115 989.039 775.124C890.269 794.58 790.271 798.784 689.901 797.296C616.502 796.18 543.586 789.595 471.08 778.323C462.264 776.947 453.596 774.752 445.039 772.185C439.236 770.436 433.283 767.981 432.949 760.876C432.539 752.208 440.835 750.199 447.234 748.004C466.207 741.531 485.998 738.592 505.864 736.843C548.348 733.049 590.907 729.849 633.429 726.315C636.516 726.055 639.53 725.311 642.58 724.753L642.543 724.715Z" fill="#B5C97F"/>
<path d="M1148.97 1045.73C1148.71 1045.73 1148.45 1045.73 1148.23 1045.8C1138.11 1048 1126.58 1044.76 1115.15 1042.9C1099.27 1040.33 1085.47 1020.65 1087.81 1006.33C1090.79 988.289 1106.04 975.79 1125.05 978.691C1146.48 981.965 1167.2 982.895 1188.11 976.013C1237.77 959.681 1271.29 906.669 1260.69 860.502C1251.05 818.538 1213.03 798.635 1173.34 814.744C1158.35 820.845 1144.47 816.901 1136.95 804.401C1129.85 792.609 1133.61 777.021 1147.52 766.567C1171.14 748.859 1198.37 744.321 1226.8 749.38C1285.46 759.759 1328.51 810.428 1329.14 871.141C1329.88 944.763 1291.38 1005.29 1221.22 1034.05C1198.78 1043.24 1174.97 1046.4 1148.93 1045.69L1148.97 1045.73Z" fill="#3F3935"/>
<path d="M664.79 398.977C664.79 398.977 664.79 398.643 664.79 398.494C665.46 385.808 667.58 374.127 675.021 364.157C684.284 351.731 692.059 352.55 697.788 366.761C701.024 374.871 703.219 383.39 705.823 391.76C708.428 400.131 709.06 409.952 713.971 416.611C727.177 434.431 718.36 446.596 707.126 460.323C700.355 468.582 696.709 467.503 690.273 460.807C673.495 443.247 666.018 422.191 664.79 399.015V398.977Z" fill="#3F3935"/>
<path d="M627.366 429.594C633.429 429.743 636.406 433.538 638.712 437.481C649.687 456.194 658.689 476.134 674.016 492.019C676.583 494.66 675.728 496.781 673.384 499.05C671.412 500.985 669.701 503.179 667.841 505.225C652.886 521.52 647.864 521.817 631.309 507.383C614.866 493.061 607.091 462.444 615.015 442.317C617.396 436.291 620.111 430.19 627.328 429.594H627.366Z" fill="#3F3935"/>
<path d="M725.392 1425C1111.66 1425 1424.78 1111.87 1424.78 725.608C1424.78 339.345 1111.66 26.2167 725.392 26.2167C339.128 26.2167 26 339.345 26 725.608C26 1111.87 339.128 1425 725.392 1425Z" stroke="#3F3935" stroke-width="51.2267" stroke-miterlimit="10"/>
<path d="M428.633 1149.15H325.51C309.361 1149.15 296.27 1162.24 296.27 1178.39V1178.43C296.27 1194.58 309.361 1207.67 325.51 1207.67H428.633C444.782 1207.67 457.874 1194.58 457.874 1178.43V1178.39C457.874 1162.24 444.782 1149.15 428.633 1149.15Z" fill="#3F3935"/>
<path d="M958.05 1241.07H492.695C476.546 1241.07 463.454 1254.17 463.454 1270.32V1270.35C463.454 1286.5 476.546 1299.59 492.695 1299.59H958.05C974.2 1299.59 987.291 1286.5 987.291 1270.35V1270.32C987.291 1254.17 974.2 1241.07 958.05 1241.07Z" fill="#3F3935"/>
<path d="M1122.48 1149.15H1027.69C1011.54 1149.15 998.452 1162.24 998.452 1178.39V1178.43C998.452 1194.58 1011.54 1207.67 1027.69 1207.67H1122.48C1138.63 1207.67 1151.72 1194.58 1151.72 1178.43V1178.39C1151.72 1162.24 1138.63 1149.15 1122.48 1149.15Z" fill="#3F3935"/>
<path d="M332.505 984.718H182.024C166.635 984.718 154.16 997.193 154.16 1012.58C154.16 1027.97 166.635 1040.45 182.024 1040.45H332.505C347.893 1040.45 360.369 1027.97 360.369 1012.58C360.369 997.193 347.893 984.718 332.505 984.718Z" fill="#3F3935"/>
<path d="M234.962 881.632H159.74C144.351 881.632 131.876 894.107 131.876 909.496C131.876 924.885 144.351 937.36 159.74 937.36H234.962C250.351 937.36 262.826 924.885 262.826 909.496C262.826 894.107 250.351 881.632 234.962 881.632Z" fill="#3F3935"/>
</svg>
